<?xml version="1.0" encoding="UTF-8"?>
<svg width="24" height="24" viewBox="0 0 24 24" fill="none" xmlns="http://www.w3.org/2000/svg">
  <!-- Geometric fireplace-inspired icon combining both reference images -->
  <!-- Center point -->
  <circle cx="12" cy="12" r="1.5" fill="#D27D52"/>
  
  <!-- Main geometric rays (inspired by second image) -->
  <path d="M12 3L12 10.5" stroke="#D27D52" stroke-width="1.5" stroke-linecap="round"/>
  <path d="M12 13.5L12 21" stroke="#D27D52" stroke-width="1.5" stroke-linecap="round"/>
  <path d="M3 12L10.5 12" stroke="#D27D52" stroke-width="1.5" stroke-linecap="round"/>
  <path d="M13.5 12L21 12" stroke="#D27D52" stroke-width="1.5" stroke-linecap="round"/>
  
  <!-- Diagonal rays -->
  <path d="M5.6 5.6L9.5 9.5" stroke="#D27D52" stroke-width="1.5" stroke-linecap="round"/>
  <path d="M14.5 14.5L18.4 18.4" stroke="#D27D52" stroke-width="1.5" stroke-linecap="round"/>
  <path d="M5.6 18.4L9.5 14.5" stroke="#D27D52" stroke-width="1.5" stroke-linecap="round"/>
  <path d="M14.5 9.5L18.4 5.6" stroke="#D27D52" stroke-width="1.5" stroke-linecap="round"/>
  
  <!-- Curved warm rays (inspired by first image) -->
  <path d="M12 7C9.5 7 8 8.5 8 8.5" stroke="#D27D52" stroke-width="1" stroke-linecap="round"/>
  <path d="M12 7C14.5 7 16 8.5 16 8.5" stroke="#D27D52" stroke-width="1" stroke-linecap="round"/>
  <path d="M12 17C9.5 17 8 15.5 8 15.5" stroke="#D27D52" stroke-width="1" stroke-linecap="round"/>
  <path d="M12 17C14.5 17 16 15.5 16 15.5" stroke="#D27D52" stroke-width="1" stroke-linecap="round"/>
</svg>