<?xml version="1.0" encoding="UTF-8"?>
<svg width="24" height="24" viewBox="0 0 24 24" fill="none" xmlns="http://www.w3.org/2000/svg">
  <!-- Fireplace-inspired icon -->
  <!-- Outer rays/warmth (similar to first reference) -->
  <path d="M12 6C12 6 14 8 14 10C14 11.1046 13.1046 12 12 12C10.8954 12 10 11.1046 10 10C10 8 12 6 12 6Z" fill="#D27D52"/>
  
  <!-- Small interior flames/reflections -->
  <path d="M12 9C12 9 12.5 10 12.5 10.5C12.5 10.7761 12.2761 11 12 11C11.7239 11 11.5 10.7761 11.5 10.5C11.5 10 12 9 12 9Z" fill="#F5EFE6"/>
  
  <!-- Flat rays radiating from the main flame (inspired by both references) -->
  <path d="M12 5L12 3" stroke="#D27D52" stroke-width="1.5" stroke-linecap="round"/>
  <path d="M15.5 6.5L17 5" stroke="#D27D52" stroke-width="1.5" stroke-linecap="round"/>
  <path d="M17 9.5L19 9.5" stroke="#D27D52" stroke-width="1.5" stroke-linecap="round"/>
  <path d="M15.5 12.5L17 14" stroke="#D27D52" stroke-width="1.5" stroke-linecap="round"/>
  <path d="M12 14L12 16" stroke="#D27D52" stroke-width="1.5" stroke-linecap="round"/>
  <path d="M8.5 12.5L7 14" stroke="#D27D52" stroke-width="1.5" stroke-linecap="round"/>
  <path d="M7 9.5L5 9.5" stroke="#D27D52" stroke-width="1.5" stroke-linecap="round"/>
  <path d="M8.5 6.5L7 5" stroke="#D27D52" stroke-width="1.5" stroke-linecap="round"/>
  
  <!-- Journal/notebook base -->
  <rect x="7" y="17" width="10" height="4" rx="1" fill="#556B2F"/>
  <rect x="8" y="17" width="8" height="4" fill="#F5EFE6"/>
  <path d="M8 18H16" stroke="#D27D52" stroke-width="0.5" stroke-linecap="round"/>
  <path d="M8 19H16" stroke="#D27D52" stroke-width="0.5" stroke-linecap="round"/>
  <path d="M8 20H16" stroke="#D27D52" stroke-width="0.5" stroke-linecap="round"/>
</svg>